<?xml version="1.0" encoding="UTF-8" standalone="no"?>
<svg width="30px" height="30px" viewBox="0 0 30 30" version="1.1" xmlns="http://www.w3.org/2000/svg" xmlns:xlink="http://www.w3.org/1999/xlink">
    <!-- Generator: Sketch 3.8.1 (29687) - http://www.bohemiancoding.com/sketch -->
    <title>Slice 1</title>
    <desc>Created with Sketch.</desc>
    <defs></defs>
    <g id="Page-1" stroke="none" stroke-width="1" fill="none" fill-rule="evenodd">
        <g id="search_32" fill="#FFFFFF">
            <g id="Group">
                <path d="M11,0 C4.926,0 0,4.926 0,11 C0,17.074 4.926,22 11,22 C17.074,22 22,17.074 22,11 C22,4.926 17.074,0 11,0 L11,0 Z M11,20 C6.038,20 2,15.962 2,11 C2,6.038 6.038,2 11,2 C15.962,2 20,6.038 20,11 C20,15.962 15.962,20 11,20 L11,20 Z" id="Shape"></path>
                <rect id="Rectangle-path" transform="translate(24.999600, 24.999293) rotate(-45.000000) translate(-24.999600, -24.999293) " x="22.8781203" y="20.0498404" width="4.24295931" height="9.89890507"></rect>
                <circle id="Oval" cx="20" cy="20" r="1"></circle>
            </g>
        </g>
    </g>
</svg>